<svg width="182" height="31" viewBox="0 0 182 31" fill="none" xmlns="http://www.w3.org/2000/svg">
<g clip-path="url(#clip0_1029_610)">
<path d="M18.08 0.0498047H2.59L5.69 3.8398L0 30.0298L10.04 14.3198H6.75L12.94 4.3698H20.26L15.35 10.9598H18.18L11.23 18.2398H14.13C20.98 18.2398 25 14.1198 26.09 9.1498C27.17 4.1698 24.93 0.0498047 18.08 0.0498047Z" fill="#E20074"/>
<path d="M39.3501 6.8999C33.0101 6.8999 27.1001 11.3799 25.7901 17.3999C24.4601 23.5099 28.4401 27.8999 34.7801 27.8999C41.1201 27.8999 47.0101 23.5099 48.3401 17.3999C49.6501 11.3799 45.6401 6.8999 39.3501 6.8999ZM41.4601 17.3999C40.6501 21.1099 38.4301 23.0099 35.8501 23.0099C33.2701 23.0099 31.8701 21.1099 32.6801 17.3999C33.4801 13.7299 35.7101 11.7899 38.2901 11.7899C40.8701 11.7899 42.2601 13.7399 41.4601 17.3999Z" fill="#E20074"/>
<path d="M78.0804 7.61963L71.7804 18.4896L70.2104 7.61963H65.7704L59.4704 18.4896L57.8904 7.61963H51.1504L54.9104 27.1796H59.5704L65.4904 17.6696L67.2704 27.1796H71.9304L84.1904 7.61963H78.0804Z" fill="#E20074"/>
<path d="M95.3101 7.07959C90.0601 7.07959 84.2701 11.0196 82.9101 17.2696C81.5901 23.3396 84.9401 27.7296 91.1801 27.7296C95.1701 27.7296 98.6201 26.4196 101.07 24.5196L100.18 21.1196C98.5401 22.2096 96.3801 22.9796 94.2101 22.9796C89.8601 22.9796 89.1801 20.7196 89.6401 18.1796H101.64C101.96 17.5496 102.42 16.0496 102.64 15.0596C103.71 10.1296 100.39 7.08959 95.3201 7.08959L95.3101 7.07959ZM96.5501 14.9096H90.4801C91.4601 12.0596 92.9501 11.0596 94.5801 11.0596C96.8901 11.0596 97.4401 12.8696 96.5501 14.9096Z" fill="#E20074"/>
<path d="M114.4 11.0598L115.01 7.20982L108.31 7.83982L104.11 27.1698H111.13L113.25 17.3898C113.98 14.0398 117.57 12.4998 120.78 13.5898L122.2 7.06982C118.89 7.06982 115.87 8.87982 114.41 11.0498L114.4 11.0598Z" fill="#E20074"/>
<path d="M128.21 0.0200195H135.54L129.64 27.18H122.31L128.21 0.0200195Z" fill="white"/>
<path d="M153.32 0H140.97L135.05 27.17H142.39L144.67 16.7H147.15C149.83 16.7 151.6 22.37 150.59 27.17H156.91C158.12 21.35 156.4 17.15 153.92 16.04C157.21 16.04 160.19 12.04 160.95 8.4C161.91 4 159.94 0 153.31 0L153.32 0ZM144.46 13.86L146.84 3.18L155.29 8.49L144.46 13.85V13.86Z" fill="white"/>
<path d="M167.61 0.0200195H174.95L170.25 21.66H181.79L180.59 27.18H161.71L167.61 0.0200195Z" fill="white"/>
</g>
<defs>
<clipPath id="clip0_1029_610">
<rect width="181.78" height="30.03" fill="white"/>
</clipPath>
</defs>
</svg>
